<svg xmlns="http://www.w3.org/2000/svg" viewBox="0 0 1200 800" width="1200" height="800" fill="none">
  <defs>
    <linearGradient id="bd-muro" x1="0" y1="0" x2="0" y2="1">
      <stop offset="0" stop-color="#f4f2ee" />
      <stop offset="1" stop-color="#e2ddd3" />
    </linearGradient>
    <linearGradient id="bd-piso" x1="0" y1="0" x2="0" y2="1">
      <stop offset="0" stop-color="#cfc8bc" />
      <stop offset="1" stop-color="#ded9cf" />
    </linearGradient>
    <linearGradient id="bd-espejo" x1="0" y1="0" x2="1" y2="1">
      <stop offset="0" stop-color="#b3ada3" />
      <stop offset="0.5" stop-color="#cdc7bd" />
      <stop offset="1" stop-color="#9d978e" />
    </linearGradient>
    <radialGradient id="bd-halo" cx="0.5" cy="0.28" r="0.62">
      <stop offset="0" stop-color="#f59e0b" stop-opacity="0.15" />
      <stop offset="1" stop-color="#f59e0b" stop-opacity="0" />
    </radialGradient>
    <pattern id="bd-enchape" width="80" height="80" patternUnits="userSpaceOnUse">
      <rect width="80" height="80" fill="#eae6df" />
      <rect width="76" height="76" x="2" y="2" fill="#f2f0eb" />
      <path d="M80 0v80M0 80h80" stroke="#ddd8ce" stroke-width="4" />
    </pattern>
  </defs>

  <rect width="1200" height="800" fill="url(#bd-muro)" />
  <rect y="60" width="1200" height="540" fill="url(#bd-enchape)" />
  <rect width="1200" height="800" fill="url(#bd-halo)" />

  <rect y="600" width="1200" height="200" fill="url(#bd-piso)" />
  <path d="M0 600h1200" stroke="#faf9f7" stroke-width="6" />
  <g stroke="#c4bdb1" stroke-width="3" opacity="0.9">
    <path d="M120 600v200M340 600v200M560 600v200M780 600v200M1000 600v200M0 700h1200" />
  </g>

  <rect y="0" width="1200" height="60" fill="#faf9f7" />
  <rect y="54" width="1200" height="6" fill="#f59e0b" />
  <rect x="420" y="18" width="360" height="8" rx="4" fill="#fcd34d" />

  <g>
    <rect x="60" y="140" width="320" height="520" fill="#faf9f7" opacity="0.42" />
    <path d="M100 640L340 180" stroke="#ffffff" stroke-width="10" stroke-opacity="0.6" stroke-linecap="round" />
    <path d="M170 650L360 290" stroke="#ffffff" stroke-width="5" stroke-opacity="0.45" stroke-linecap="round" />
    <rect x="61.5" y="141.5" width="317" height="517" stroke="#f59e0b" stroke-width="3" />
  </g>
  <rect x="196" y="140" width="12" height="46" fill="#f59e0b" />
  <ellipse cx="202" cy="196" rx="36" ry="12" fill="#f59e0b" />
  <path d="M182 208v20M196 210v22M210 210v22M224 208v20" stroke="#cdd6dd" stroke-width="3" stroke-linecap="round" />

  <rect x="780" y="120" width="260" height="300" rx="6" fill="url(#bd-espejo)" />
  <path d="M804 396L1004 148" stroke="#faf9f7" stroke-width="14" stroke-opacity="0.55" stroke-linecap="round" />
  <path d="M872 404L1020 220" stroke="#faf9f7" stroke-width="7" stroke-opacity="0.4" stroke-linecap="round" />
  <rect x="781.5" y="121.5" width="257" height="297" rx="5" stroke="#faf9f7" stroke-width="3" />
  <rect x="772" y="112" width="276" height="6" rx="3" fill="#f59e0b" />

  <rect x="720" y="470" width="400" height="24" fill="#faf9f7" />
  <rect x="720" y="488" width="400" height="6" fill="#c4bdb1" />
  <rect x="740" y="494" width="360" height="150" fill="#e7e3dc" />
  <path d="M920 494v150" stroke="#d6d0c6" stroke-width="3" />
  <rect x="756" y="510" width="148" height="5" rx="2.5" fill="#f59e0b" />
  <rect x="936" y="510" width="148" height="5" rx="2.5" fill="#f59e0b" />

  <rect x="852" y="424" width="136" height="48" rx="8" fill="#faf9f7" />
  <rect x="853.5" y="425.5" width="133" height="45" rx="7" stroke="#e7e3dc" stroke-width="3" />
  <ellipse cx="920" cy="448" rx="44" ry="12" fill="#e7e3dc" />
  <path d="M920 424v-38q0-14 14-14h22" stroke="#f59e0b" stroke-width="7" stroke-linecap="round" />

  <rect x="470" y="150" width="14" height="180" rx="7" fill="#f59e0b" />
  <rect x="446" y="330" width="62" height="120" rx="6" fill="#e7e3dc" />
  <rect x="446" y="330" width="62" height="120" rx="6" stroke="#faf9f7" stroke-width="3" />

  <g>
    <rect x="560" y="620" width="120" height="150" rx="8" fill="#b45309" />
    <rect x="560" y="620" width="120" height="14" rx="7" fill="#d97706" />
    <path d="M620 620c-22-24-52-22-64-46 32-6 54 8 64 28 10-24 34-40 68-32-18 26-46 24-68 50z" fill="#6b7a4a" />
  </g>

  <rect x="1096" y="188" width="88" height="10" rx="5" fill="#faf9f7" />
  <rect x="1104" y="198" width="72" height="70" rx="4" fill="#e7e3dc" />
  <rect x="1104" y="198" width="72" height="70" rx="4" stroke="#faf9f7" stroke-width="3" />

  <rect y="596" width="1200" height="10" fill="#faf9f7" />
  <rect width="1200" height="800" fill="#faf9f7" opacity="0.05" />
</svg>
