<svg xmlns="http://www.w3.org/2000/svg" viewBox="0 0 1200 800" width="1200" height="800" fill="none">
  <defs>
    <linearGradient id="ba-muro" x1="0" y1="0" x2="0" y2="1">
      <stop offset="0" stop-color="#43434c" />
      <stop offset="1" stop-color="#35353d" />
    </linearGradient>
    <linearGradient id="ba-piso" x1="0" y1="0" x2="0" y2="1">
      <stop offset="0" stop-color="#33333a" />
      <stop offset="1" stop-color="#3d3d45" />
    </linearGradient>
    <linearGradient id="ba-espejo" x1="0" y1="0" x2="1" y2="1">
      <stop offset="0" stop-color="#2f2f36" />
      <stop offset="1" stop-color="#25252b" />
    </linearGradient>
    <linearGradient id="ba-mancha" x1="0" y1="0" x2="0" y2="1">
      <stop offset="0" stop-color="#1c1c21" stop-opacity="0" />
      <stop offset="1" stop-color="#1c1c21" stop-opacity="0.6" />
    </linearGradient>
    <pattern id="ba-enchape" width="80" height="80" patternUnits="userSpaceOnUse">
      <rect width="80" height="80" fill="#4a4a52" />
      <rect width="76" height="76" x="2" y="2" fill="#44444d" />
      <path d="M80 0v80M0 80h80" stroke="#383840" stroke-width="4" />
    </pattern>
  </defs>

  <rect width="1200" height="800" fill="url(#ba-muro)" />
  <rect y="60" width="1200" height="540" fill="url(#ba-enchape)" />

  <rect y="600" width="1200" height="200" fill="url(#ba-piso)" />
  <path d="M0 600h1200" stroke="#2a2a30" stroke-width="6" />
  <g stroke="#34343b" stroke-width="3" opacity="0.9">
    <path d="M120 600v200M340 600v200M560 600v200M780 600v200M1000 600v200M0 700h1200" />
  </g>

  <rect y="0" width="1200" height="60" fill="#3a3a42" />
  <rect y="54" width="1200" height="6" fill="#2c2c33" />

  <g>
    <rect x="60" y="140" width="320" height="520" fill="#2e2e35" opacity="0.5" />
    <rect x="61.5" y="141.5" width="317" height="517" stroke="#50505a" stroke-width="3" />
    <path d="M100 640L340 180" stroke="#5c5c66" stroke-width="6" stroke-opacity="0.25" stroke-linecap="round" />
    <rect x="60" y="140" width="320" height="520" fill="url(#ba-mancha)" opacity="0.7" />
  </g>
  <rect x="196" y="140" width="12" height="46" fill="#4d4d57" />
  <ellipse cx="202" cy="196" rx="36" ry="12" fill="#55555f" />
  <path d="M182 208v14M196 210v14M210 210v14M224 208v14" stroke="#4a4a52" stroke-width="3" stroke-linecap="round" />

  <rect x="780" y="120" width="260" height="300" rx="6" fill="url(#ba-espejo)" />
  <rect x="781.5" y="121.5" width="257" height="297" rx="5" stroke="#54545e" stroke-width="3" />
  <path d="M800 400L1010 140" stroke="#3b3b43" stroke-width="8" stroke-linecap="round" />
  <g stroke="#4f4f59" fill="none" stroke-width="2" stroke-linecap="round">
    <path d="M900 120l-16 96 22 78-14 60 18 66" />
    <path d="M906 216l-40 26M908 294l38 34" />
  </g>

  <rect x="720" y="470" width="400" height="24" fill="#4d4d57" />
  <rect x="720" y="488" width="400" height="6" fill="#33333a" />
  <rect x="740" y="494" width="360" height="150" fill="#3f3f47" />
  <path d="M920 494v150" stroke="#333339" stroke-width="3" />
  <rect x="756" y="510" width="148" height="4" rx="2" fill="#54545e" />
  <rect x="936" y="510" width="148" height="4" rx="2" fill="#54545e" />

  <rect x="852" y="424" width="136" height="48" rx="8" fill="#4a4a52" />
  <rect x="853.5" y="425.5" width="133" height="45" rx="7" stroke="#5a5a64" stroke-width="3" />
  <ellipse cx="920" cy="448" rx="44" ry="12" fill="#2f2f36" />
  <path d="M920 424v-38q0-14 14-14h22" stroke="#57575f" stroke-width="7" stroke-linecap="round" />

  <g fill="#2b2b31" opacity="0.75">
    <path d="M0 60h130l-32 42H0z" />
    <path d="M1200 60h-120l30 40h90z" />
    <path d="M0 540q60 30 130 22l-14 38H0z" />
  </g>

  <g opacity="0.65">
    <ellipse cx="440" cy="590" rx="90" ry="26" fill="#26262c" />
    <ellipse cx="640" cy="180" rx="70" ry="48" fill="#2c2c33" />
    <ellipse cx="1140" cy="620" rx="60" ry="40" fill="#26262c" />
  </g>

  <g stroke="#2c2c32" fill="none" stroke-linecap="round" stroke-width="2.5">
    <path d="M480 60l14 84-18 76 12 66" />
    <path d="M492 144l34 24" />
    <path d="M640 600l-56-40-70-8" />
    <path d="M1120 240l-30 56 20 48" />
  </g>

  <rect y="596" width="1200" height="10" fill="#2a2a30" />
  <rect width="1200" height="800" fill="#1c1c21" opacity="0.16" />
</svg>
