<svg xmlns="http://www.w3.org/2000/svg" viewBox="0 0 1200 800" width="1200" height="800" fill="none">
  <defs>
    <linearGradient id="ca-muro" x1="0" y1="0" x2="0" y2="1">
      <stop offset="0" stop-color="#3f3f47" />
      <stop offset="1" stop-color="#35353d" />
    </linearGradient>
    <linearGradient id="ca-mueble" x1="0" y1="0" x2="0" y2="1">
      <stop offset="0" stop-color="#4a4a52" />
      <stop offset="1" stop-color="#3c3c44" />
    </linearGradient>
    <linearGradient id="ca-piso" x1="0" y1="0" x2="0" y2="1">
      <stop offset="0" stop-color="#32323a" />
      <stop offset="1" stop-color="#3c3c44" />
    </linearGradient>
    <linearGradient id="ca-mancha" x1="0" y1="0" x2="0" y2="1">
      <stop offset="0" stop-color="#1c1c21" stop-opacity="0.55" />
      <stop offset="1" stop-color="#1c1c21" stop-opacity="0" />
    </linearGradient>
    <pattern id="ca-salpicadero" width="60" height="40" patternUnits="userSpaceOnUse">
      <rect width="60" height="40" fill="#454550" />
      <rect width="56" height="36" x="2" y="2" fill="#41414a" />
      <path d="M60 0v40M0 40h60" stroke="#37373f" stroke-width="3" />
    </pattern>
  </defs>

  <rect width="1200" height="800" fill="url(#ca-muro)" />
  <rect x="80" y="300" width="1040" height="170" fill="url(#ca-salpicadero)" />

  <rect y="700" width="1200" height="100" fill="url(#ca-piso)" />
  <path d="M0 700h1200" stroke="#292930" stroke-width="6" />
  <g stroke="#34343b" stroke-width="3">
    <path d="M140 700v100M380 700v100M620 700v100M860 700v100M1100 700v100" />
  </g>

  <rect x="120" y="120" width="400" height="180" fill="url(#ca-mueble)" />
  <path d="M320 120v180" stroke="#33333a" stroke-width="3" />
  <rect x="121.5" y="121.5" width="397" height="177" stroke="#55555f" stroke-width="3" />
  <rect x="240" y="276" width="60" height="6" rx="3" fill="#5a5a64" />
  <rect x="340" y="276" width="60" height="6" rx="3" fill="#5a5a64" />

  <rect x="760" y="120" width="320" height="180" fill="url(#ca-mueble)" />
  <path d="M920 120v180" stroke="#33333a" stroke-width="3" />
  <rect x="761.5" y="121.5" width="317" height="177" stroke="#55555f" stroke-width="3" />
  <rect x="840" y="276" width="60" height="6" rx="3" fill="#5a5a64" />
  <rect x="940" y="276" width="60" height="6" rx="3" fill="#5a5a64" />

  <path d="M560 120h180l40 180H520z" fill="#484851" />
  <path d="M560 120h180l40 180H520z" stroke="#5a5a64" stroke-width="3" />
  <rect x="516" y="292" width="268" height="12" fill="#3f3f48" />

  <rect x="80" y="470" width="1040" height="26" fill="#52525c" />
  <rect x="80" y="490" width="1040" height="6" fill="#33333a" />

  <rect x="100" y="496" width="1000" height="204" fill="url(#ca-mueble)" />
  <g stroke="#33333a" stroke-width="3">
    <path d="M340 496v204M620 496v204M860 496v204M100 590h240M100 640h240" />
  </g>
  <rect x="160" y="516" width="120" height="5" rx="2.5" fill="#5a5a64" />
  <rect x="160" y="610" width="120" height="5" rx="2.5" fill="#5a5a64" />
  <rect x="160" y="660" width="120" height="5" rx="2.5" fill="#5a5a64" />
  <rect x="420" y="516" width="120" height="5" rx="2.5" fill="#5a5a64" />
  <rect x="700" y="516" width="120" height="5" rx="2.5" fill="#5a5a64" />
  <rect x="940" y="516" width="120" height="5" rx="2.5" fill="#5a5a64" />

  <rect x="880" y="424" width="180" height="48" rx="4" fill="#3c3c44" />
  <rect x="881.5" y="425.5" width="177" height="45" rx="3" stroke="#55555f" stroke-width="3" />
  <path d="M970 424v-36q0-16 16-16h26" stroke="#57575f" stroke-width="7" stroke-linecap="round" />

  <rect x="530" y="440" width="240" height="32" rx="4" fill="#3a3a42" />
  <g fill="#2e2e35" stroke="#4a4a52" stroke-width="2.5">
    <circle cx="586" cy="456" r="16" />
    <circle cx="650" cy="456" r="16" />
    <circle cx="714" cy="456" r="16" />
  </g>

  <g opacity="0.8">
    <rect x="520" y="304" width="264" height="150" fill="url(#ca-mancha)" />
    <rect x="880" y="304" width="200" height="130" fill="url(#ca-mancha)" />
    <rect x="120" y="304" width="400" height="90" fill="url(#ca-mancha)" opacity="0.7" />
  </g>
  <g opacity="0.7">
    <ellipse cx="650" cy="330" rx="110" ry="34" fill="#2a2a31" />
    <ellipse cx="960" cy="452" rx="80" ry="20" fill="#2a2a31" />
    <ellipse cx="200" cy="690" rx="100" ry="18" fill="#26262c" />
    <ellipse cx="1150" cy="360" rx="50" ry="60" fill="#2c2c33" />
  </g>

  <g stroke="#2c2c32" fill="none" stroke-linecap="round">
    <path d="M240 0l16 60-12 60" stroke-width="2.5" />
    <path d="M1000 0l-20 58 14 62" stroke-width="2.5" />
    <path d="M120 470l-40 90 20 80-14 60" stroke-width="3" />
    <path d="M104 640l-24 26" stroke-width="2" />
    <path d="M700 700l70-30 60 6" stroke-width="2" />
  </g>

  <rect x="404" y="496" width="216" height="204" fill="#34343b" />
  <path d="M404 560h216M404 620h216" stroke="#2b2b32" stroke-width="4" />

  <rect width="1200" height="800" fill="#1c1c21" opacity="0.16" />
</svg>
