<svg xmlns="http://www.w3.org/2000/svg" viewBox="0 0 1200 800" width="1200" height="800" fill="none">
  <defs>
    <linearGradient id="cd-muro" x1="0" y1="0" x2="0" y2="1">
      <stop offset="0" stop-color="#f4f2ee" />
      <stop offset="1" stop-color="#e0dbd1" />
    </linearGradient>
    <linearGradient id="cd-mueble" x1="0" y1="0" x2="0" y2="1">
      <stop offset="0" stop-color="#faf9f7" />
      <stop offset="1" stop-color="#ddd8ce" />
    </linearGradient>
    <linearGradient id="cd-piso" x1="0" y1="0" x2="0" y2="1">
      <stop offset="0" stop-color="#c9c2b6" />
      <stop offset="1" stop-color="#dbd6cc" />
    </linearGradient>
    <linearGradient id="cd-meson" x1="0" y1="0" x2="1" y2="0">
      <stop offset="0" stop-color="#4a4550" />
      <stop offset="0.5" stop-color="#5c5663" />
      <stop offset="1" stop-color="#453f4c" />
    </linearGradient>
    <radialGradient id="cd-halo" cx="0.5" cy="0.2" r="0.7">
      <stop offset="0" stop-color="#f59e0b" stop-opacity="0.14" />
      <stop offset="1" stop-color="#f59e0b" stop-opacity="0" />
    </radialGradient>
    <pattern id="cd-salpicadero" width="60" height="40" patternUnits="userSpaceOnUse">
      <rect width="60" height="40" fill="#e7e3dc" />
      <rect width="56" height="36" x="2" y="2" fill="#f2f0eb" />
      <path d="M60 0v40M0 40h60" stroke="#dcd7cd" stroke-width="3" />
    </pattern>
  </defs>

  <rect width="1200" height="800" fill="url(#cd-muro)" />
  <rect x="80" y="300" width="1040" height="170" fill="url(#cd-salpicadero)" />
  <rect width="1200" height="800" fill="url(#cd-halo)" />

  <rect y="700" width="1200" height="100" fill="url(#cd-piso)" />
  <path d="M0 700h1200" stroke="#faf9f7" stroke-width="6" />
  <g stroke="#c4bdb1" stroke-width="3">
    <path d="M140 700v100M380 700v100M620 700v100M860 700v100M1100 700v100" />
  </g>

  <rect x="120" y="120" width="400" height="180" fill="url(#cd-mueble)" />
  <path d="M320 120v180" stroke="#e2ddd3" stroke-width="3" />
  <rect x="121.5" y="121.5" width="397" height="177" stroke="#faf9f7" stroke-width="3" />
  <rect x="240" y="276" width="60" height="6" rx="3" fill="#f59e0b" />
  <rect x="340" y="276" width="60" height="6" rx="3" fill="#f59e0b" />

  <rect x="760" y="120" width="320" height="180" fill="url(#cd-mueble)" />
  <path d="M920 120v180" stroke="#e2ddd3" stroke-width="3" />
  <rect x="761.5" y="121.5" width="317" height="177" stroke="#faf9f7" stroke-width="3" />
  <rect x="840" y="276" width="60" height="6" rx="3" fill="#f59e0b" />
  <rect x="940" y="276" width="60" height="6" rx="3" fill="#f59e0b" />

  <path d="M560 120h180l40 180H520z" fill="#faf9f7" />
  <path d="M560 120h180l40 180H520z" stroke="#e7e3dc" stroke-width="3" />
  <rect x="516" y="292" width="268" height="12" rx="2" fill="#f59e0b" />

  <rect x="120" y="304" width="400" height="8" rx="4" fill="#fcd34d" opacity="0.85" />
  <rect x="760" y="304" width="320" height="8" rx="4" fill="#fcd34d" opacity="0.85" />

  <rect x="80" y="470" width="1040" height="26" fill="url(#cd-meson)" />
  <rect x="80" y="470" width="1040" height="5" fill="#8a8390" opacity="0.7" />
  <rect x="80" y="490" width="1040" height="6" fill="#c4bdb1" />

  <rect x="100" y="496" width="1000" height="204" fill="url(#cd-mueble)" />
  <g stroke="#e2ddd3" stroke-width="3">
    <path d="M340 496v204M620 496v204M860 496v204M100 590h240M100 640h240" />
  </g>
  <g fill="#f59e0b">
    <rect x="160" y="516" width="120" height="5" rx="2.5" />
    <rect x="160" y="610" width="120" height="5" rx="2.5" />
    <rect x="160" y="660" width="120" height="5" rx="2.5" />
    <rect x="420" y="516" width="120" height="5" rx="2.5" />
    <rect x="700" y="516" width="120" height="5" rx="2.5" />
    <rect x="940" y="516" width="120" height="5" rx="2.5" />
  </g>
  <rect x="100" y="690" width="1000" height="10" fill="#c4bdb1" />

  <rect x="880" y="424" width="180" height="48" rx="4" fill="#faf9f7" />
  <rect x="881.5" y="425.5" width="177" height="45" rx="3" stroke="#e7e3dc" stroke-width="3" />
  <path d="M970 424v-36q0-16 16-16h26" stroke="#f59e0b" stroke-width="7" stroke-linecap="round" />

  <rect x="530" y="440" width="240" height="32" rx="4" fill="#2f2b35" />
  <g fill="none" stroke="#f59e0b" stroke-width="3">
    <circle cx="586" cy="456" r="16" />
    <circle cx="650" cy="456" r="16" />
    <circle cx="714" cy="456" r="16" />
  </g>

  <g>
    <rect x="180" y="404" width="70" height="66" rx="6" fill="#b45309" />
    <rect x="180" y="404" width="70" height="14" rx="6" fill="#d97706" />
    <path d="M215 404c-16-20-40-18-50-38 26-6 44 6 50 24 8-20 28-32 54-26-14 22-38 20-54 40z" fill="#6b7a4a" />
  </g>

  <g>
    <rect x="380" y="440" width="44" height="30" rx="3" fill="#e7e3dc" />
    <rect x="386" y="410" width="32" height="30" rx="3" fill="#faf9f7" />
    <rect x="386" y="410" width="32" height="30" rx="3" stroke="#e2ddd3" stroke-width="2" />
    <rect x="394" y="386" width="16" height="24" rx="3" fill="#f59e0b" />
  </g>

  <g>
    <rect x="404" y="496" width="216" height="204" fill="#f2f0eb" />
    <path d="M404 560h216M404 620h216" stroke="#e2ddd3" stroke-width="4" />
    <rect x="490" y="536" width="44" height="5" rx="2.5" fill="#f59e0b" />
    <rect x="490" y="596" width="44" height="5" rx="2.5" fill="#f59e0b" />
    <rect x="490" y="656" width="44" height="5" rx="2.5" fill="#f59e0b" />
  </g>

  <rect width="1200" height="800" fill="#faf9f7" opacity="0.05" />
</svg>
