<svg xmlns="http://www.w3.org/2000/svg" viewBox="0 0 1200 800" width="1200" height="800" fill="none">
  <defs>
    <linearGradient id="fa-cielo" x1="0" y1="0" x2="0" y2="1">
      <stop offset="0" stop-color="#24242a" />
      <stop offset="1" stop-color="#3d3d46" />
    </linearGradient>
    <linearGradient id="fa-muro" x1="0" y1="0" x2="1" y2="1">
      <stop offset="0" stop-color="#4f4f59" />
      <stop offset="0.55" stop-color="#43434c" />
      <stop offset="1" stop-color="#37373f" />
    </linearGradient>
    <linearGradient id="fa-vidrio" x1="0" y1="0" x2="1" y2="1">
      <stop offset="0" stop-color="#2d2d34" />
      <stop offset="1" stop-color="#1e1e24" />
    </linearGradient>
    <linearGradient id="fa-mancha" x1="0" y1="0" x2="0" y2="1">
      <stop offset="0" stop-color="#1b1b20" stop-opacity="0.55" />
      <stop offset="1" stop-color="#1b1b20" stop-opacity="0" />
    </linearGradient>

    <g id="fa-ventana">
      <rect width="110" height="130" fill="url(#fa-vidrio)" />
      <path d="M0 65h110M55 0v130" stroke="#54545e" stroke-width="2.5" />
      <rect x="1.5" y="1.5" width="107" height="127" stroke="#5a5a64" stroke-width="3" />
      <rect x="-7" y="130" width="124" height="9" fill="#4a4a54" />
      <rect x="-7" y="137" width="124" height="2" fill="#2c2c33" />
    </g>

    <g id="fa-baranda">
      <rect x="-12" y="0" width="134" height="7" fill="#484850" />
      <path d="M0 7v26M18 7v26M36 7v26M54 7v26M72 7v26M90 7v26M108 7v26" stroke="#3d3d45" stroke-width="3" />
      <rect x="-12" y="31" width="134" height="5" fill="#42424a" />
    </g>
  </defs>

  <rect width="1200" height="800" fill="url(#fa-cielo)" />

  <rect y="720" width="1200" height="80" fill="#2e2e34" />
  <rect y="720" width="1200" height="4" fill="#232328" />
  <path d="M0 762h1200" stroke="#37373d" stroke-width="2" stroke-dasharray="46 34" />

  <rect x="120" y="90" width="960" height="630" fill="url(#fa-muro)" />

  <rect x="100" y="64" width="1000" height="28" fill="#43434c" />
  <rect x="100" y="86" width="1000" height="6" fill="#2d2d34" />

  <rect x="120" y="290" width="960" height="10" fill="#494952" />
  <rect x="120" y="460" width="960" height="10" fill="#494952" />

  <rect x="120" y="660" width="960" height="60" fill="#3a3a42" />
  <rect x="120" y="660" width="960" height="4" fill="#2b2b32" />

  <use href="#fa-ventana" x="175" y="145" />
  <use href="#fa-ventana" x="360" y="145" />
  <use href="#fa-ventana" x="545" y="145" />
  <use href="#fa-ventana" x="730" y="145" />
  <use href="#fa-ventana" x="915" y="145" />

  <use href="#fa-ventana" x="175" y="315" />
  <use href="#fa-ventana" x="360" y="315" />
  <use href="#fa-ventana" x="545" y="315" />
  <use href="#fa-ventana" x="730" y="315" />
  <use href="#fa-ventana" x="915" y="315" />

  <use href="#fa-ventana" x="175" y="485" />
  <use href="#fa-ventana" x="360" y="485" />
  <use href="#fa-ventana" x="730" y="485" />
  <use href="#fa-ventana" x="915" y="485" />

  <use href="#fa-baranda" x="175" y="424" />
  <use href="#fa-baranda" x="360" y="424" />
  <use href="#fa-baranda" x="545" y="424" />
  <use href="#fa-baranda" x="730" y="424" />
  <use href="#fa-baranda" x="915" y="424" />

  <rect x="525" y="500" width="150" height="160" fill="#26262c" />
  <rect x="526.5" y="501.5" width="147" height="157" stroke="#52525c" stroke-width="3" />
  <path d="M600 500v160" stroke="#3a3a42" stroke-width="3" />
  <rect x="515" y="486" width="170" height="14" fill="#45454e" />

  <g opacity="0.75">
    <rect x="175" y="275" width="110" height="105" fill="url(#fa-mancha)" />
    <rect x="730" y="275" width="110" height="120" fill="url(#fa-mancha)" />
    <rect x="915" y="445" width="110" height="130" fill="url(#fa-mancha)" />
    <rect x="360" y="615" width="110" height="60" fill="url(#fa-mancha)" />
  </g>

  <g opacity="0.5">
    <ellipse cx="1046" cy="150" rx="46" ry="72" fill="#24242a" />
    <ellipse cx="140" cy="640" rx="34" ry="58" fill="#24242a" />
    <ellipse cx="640" cy="700" rx="120" ry="26" fill="#24242a" />
  </g>

  <g stroke="#28282e" fill="none" stroke-linecap="round">
    <path d="M474 92l-14 82 16 74-12 88 18 66" stroke-width="3.5" />
    <path d="M476 174l-30 30M472 336l26 34" stroke-width="2" />
    <path d="M1064 300l-24 70 14 62-18 76" stroke-width="3" />
    <path d="M1052 432l24 26" stroke-width="2" />
    <path d="M300 664l-52 34 -68 12" stroke-width="2.5" />
    <path d="M866 92l10 54-14 40" stroke-width="2" />
  </g>

  <g fill="#33333a">
    <rect x="360" y="145" width="110" height="130" />
    <path d="M360 160h110M360 190h110M360 220h110M360 250h110" stroke="#292930" stroke-width="4" />
  </g>

  <rect x="120" y="90" width="960" height="630" fill="#1c1c21" opacity="0.18" />
</svg>
